<svg width="120" height="19" viewBox="0 0 120 19" fill="none" xmlns="http://www.w3.org/2000/svg">
<path d="M7.48807 18.3971C6.11366 18.3971 4.98665 18.325 4.10703 18.1664C3.22741 18.0079 2.55395 17.6907 2.08665 17.2149C1.61935 16.7392 1.30324 16.0328 1.12456 15.0957C0.959635 14.1586 0.863425 12.9043 0.863425 11.3473L0.835938 0.116638H3.99707V4.038C4.09328 4.038 4.29944 4.038 4.64305 4.02358C4.98665 4.00917 5.39897 3.99475 5.86627 3.99475C6.33357 3.98033 6.80087 3.96592 7.25442 3.93708C7.70797 3.90825 8.10655 3.90825 8.45016 3.90825C10.0994 3.90825 11.3776 4.13892 12.2985 4.58584C13.2194 5.04718 13.8653 5.79685 14.2364 6.84927C14.6075 7.9017 14.8137 9.32896 14.8412 11.1311C14.8412 12.8611 14.6762 14.2162 14.3464 15.1966C14.0165 16.1769 13.5355 16.8978 12.917 17.3591C12.2985 17.8204 11.5288 18.1088 10.6217 18.2241C9.68712 18.3394 8.65632 18.3971 7.48807 18.3971ZM7.51556 16.5229C8.5876 16.5229 9.42598 16.3932 10.0032 16.1481C10.5805 15.903 10.9928 15.3696 11.2402 14.5767C11.4739 13.7837 11.5975 12.5871 11.5975 10.9725C11.5701 9.64613 11.4326 8.62254 11.1852 7.87286C10.9378 7.12319 10.5255 6.58977 9.962 6.2726C9.3985 5.95543 8.65632 5.78243 7.70798 5.78243C7.46058 5.78243 7.13072 5.78243 6.74589 5.79685C6.36106 5.81126 5.96248 5.82568 5.57764 5.82568C5.19281 5.8401 4.84921 5.85451 4.56058 5.85451C4.27196 5.86893 4.07954 5.86893 3.99707 5.86893V11.7077C3.99707 12.7601 4.03831 13.6107 4.12077 14.2307C4.20324 14.8506 4.35442 15.3263 4.58807 15.6579C4.82172 15.9751 5.16532 16.2058 5.63262 16.3211C6.11366 16.4653 6.74589 16.5229 7.51556 16.5229Z" fill="#3257A4"/>
<path d="M24.4754 18.5124C23.3346 18.5124 22.3176 18.4259 21.438 18.2385C20.5583 18.0655 19.8024 17.7195 19.1702 17.2149C18.538 16.7103 18.0707 15.9606 17.7408 14.9803C17.4247 14 17.2598 12.7169 17.2598 11.131C17.2598 9.54518 17.4247 8.26208 17.7408 7.28174C18.0569 6.3014 18.538 5.55173 19.1702 5.04714C19.8024 4.54256 20.5583 4.19655 21.438 4.02355C22.3176 3.85055 23.3346 3.74963 24.4754 3.74963C25.5749 3.74963 26.5645 3.83613 27.4441 4.02355C28.3237 4.19655 29.0797 4.54256 29.6981 5.04714C30.3166 5.55173 30.7977 6.3014 31.1275 7.28174C31.4574 8.26208 31.6223 9.54518 31.6223 11.131C31.6223 12.7457 31.4574 14.0432 31.1275 15.0236C30.7977 16.0039 30.3166 16.7536 29.6981 17.2437C29.0797 17.7339 28.3237 18.0655 27.4441 18.2529C26.5645 18.4259 25.5749 18.5124 24.4754 18.5124ZM24.4754 16.7103C25.3 16.7103 26.001 16.5806 26.592 16.3211C27.1692 16.0616 27.6228 15.5281 27.9114 14.7352C28.2138 13.9423 28.3512 12.7457 28.3512 11.131C28.3512 9.51634 28.2 8.31975 27.9114 7.52683C27.609 6.73391 27.1692 6.20049 26.592 5.94098C26.0147 5.68148 25.3 5.55173 24.4754 5.55173C23.6508 5.55173 22.9361 5.68148 22.3451 5.94098C21.7541 6.20049 21.3005 6.73391 20.9844 7.52683C20.682 8.31975 20.5171 9.51634 20.5171 11.131C20.5171 12.7457 20.6683 13.9423 20.9844 14.7352C21.2868 15.5281 21.7403 16.0616 22.3451 16.3211C22.9498 16.5806 23.6508 16.7103 24.4754 16.7103Z" fill="#3257A4"/>
<path d="M34.5774 18.2962L34.5361 1.37087C34.5361 0.866287 34.6049 0.520285 34.756 0.347283C34.9072 0.174282 35.2371 0.0733643 35.7319 0.0733643H37.7935V11.1022L43.6347 4.68673C43.9371 4.3984 44.2395 4.18215 44.5418 4.05239C44.8442 3.92264 45.2977 3.85056 45.8612 3.85056C46.3011 3.85056 46.6996 3.85056 47.057 3.86498C47.4281 3.87939 47.7579 3.89381 48.0466 3.92264C47.9778 3.99473 47.8404 4.11006 47.6205 4.28306C47.4006 4.45606 47.1669 4.64348 46.9195 4.84532C46.6721 5.04715 46.4385 5.24899 46.2323 5.4364L41.8067 9.86236L47.7854 16.8112C48.0328 17.0996 48.2939 17.3591 48.5413 17.6042C48.7887 17.8493 49.0361 18.0655 49.256 18.2818C48.6788 18.3106 48.1015 18.3106 47.5243 18.3106C46.947 18.3106 46.4248 18.3106 45.9575 18.3106C45.4352 18.3106 45.0366 18.2385 44.7755 18.1088C44.5143 17.979 44.2257 17.7483 43.9371 17.4456L39.5802 12.2988L37.7935 13.8846V18.2818H34.5774V18.2962Z" fill="#3257A4"/>
<path d="M55.6613 18.4404C55.2215 18.4404 54.713 18.4259 54.122 18.4115C53.531 18.3827 52.9262 18.3394 52.3215 18.2529C51.7168 18.1664 51.167 18.0367 50.686 17.8781C50.3836 17.806 50.1499 17.7051 49.985 17.5898C49.8201 17.4744 49.6826 17.2582 49.6139 16.9554C49.5315 16.6527 49.4902 16.1913 49.4902 15.5714C50.0675 15.8309 50.6997 16.0472 51.4144 16.2058C52.1291 16.3643 52.83 16.4653 53.531 16.5085C54.2319 16.5518 54.8367 16.5806 55.3315 16.5806C55.9499 16.5806 56.5684 16.5518 57.1732 16.5085C57.7779 16.4653 58.3414 16.3499 58.8499 16.1913C59.3585 16.0183 59.7708 15.7588 60.0869 15.3984C60.3893 15.038 60.5542 14.5478 60.5542 13.9279C60.5542 13.0917 60.348 12.5439 59.9357 12.3132C59.5234 12.0681 58.9461 11.9528 58.2177 11.9528H54.6168C53.7234 11.9528 52.8988 11.8951 52.1291 11.7798C51.3594 11.6645 50.7409 11.3473 50.2736 10.8427C49.8063 10.3381 49.5727 9.48753 49.5727 8.29094C49.5727 6.9646 49.8751 5.98426 50.4935 5.3355C51.112 4.68675 51.9916 4.26866 53.1187 4.08124C54.2457 3.89383 55.5788 3.79291 57.1182 3.79291C57.6954 3.79291 58.3551 3.80732 59.1248 3.82174C59.8945 3.85057 60.6092 3.92266 61.2689 4.03799C61.8187 4.08124 62.2585 4.18216 62.5883 4.31191C62.9182 4.44166 63.1656 4.62908 63.3305 4.84533C63.4954 5.076 63.5641 5.422 63.5641 5.86892V6.69068C63.358 6.43118 63.0006 6.22934 62.5059 6.09959C61.9973 5.96984 61.4063 5.86892 60.7329 5.79684C60.0594 5.72475 59.3585 5.68151 58.6438 5.66709C57.9291 5.65267 57.2556 5.65267 56.6371 5.65267C55.9774 5.65267 55.3315 5.69592 54.7267 5.78242C54.122 5.86892 53.6272 6.07076 53.2698 6.41676C52.8988 6.74835 52.7201 7.3106 52.7201 8.07469C52.7201 8.68019 52.83 9.1127 53.0637 9.3722C53.2973 9.6317 53.6135 9.8047 54.0258 9.87679C54.4381 9.94887 54.9054 9.99212 55.4277 9.99212H59.2073C60.1281 9.99212 60.9253 10.0786 61.6125 10.2372C62.2997 10.4102 62.8357 10.7706 63.2205 11.3185C63.6054 11.8663 63.7978 12.7313 63.7978 13.9135C63.7978 15.2542 63.4404 16.249 62.7395 16.8978C62.0248 17.5465 61.0627 17.979 59.8532 18.1809C58.63 18.3394 57.2419 18.4404 55.6613 18.4404Z" fill="#3257A4"/>
<path d="M67.4668 18.2962C66.9445 18.2962 66.5872 18.2097 66.4223 18.0511C66.2573 17.8781 66.1611 17.5177 66.1611 16.9698V4.93183C66.4085 4.85975 66.7384 4.75883 67.137 4.6435C67.5355 4.52816 68.0028 4.39841 68.5389 4.26866C69.0749 4.13891 69.6659 4.03799 70.3256 3.96591C70.9716 3.89382 71.6588 3.86499 72.3735 3.86499C73.1981 3.86499 73.9128 3.93707 74.5038 4.06682C75.0948 4.19658 75.6171 4.44166 76.0431 4.78766C76.4829 5.13367 76.8265 5.63825 77.1014 6.28701L76.5517 6.25817C76.7303 5.79684 77.0052 5.40759 77.3763 5.09042C77.7474 4.77325 78.1597 4.51374 78.627 4.34074C79.0943 4.16774 79.5891 4.03799 80.0839 3.96591C80.5924 3.89382 81.0597 3.86499 81.4858 3.86499C82.8602 3.86499 83.946 4.00916 84.7294 4.28308C85.5128 4.55699 86.0763 5.01833 86.4062 5.66709C86.736 6.31584 86.901 7.20968 86.901 8.33419V17.1284C86.901 17.633 86.8185 17.9646 86.6398 18.1232C86.4749 18.2818 86.145 18.3538 85.664 18.3538H83.7536C83.7536 16.6671 83.7536 14.9947 83.7536 13.308C83.7536 11.6212 83.7536 9.93445 83.7536 8.23327C83.7261 7.19526 83.5062 6.50326 83.0664 6.14284C82.6265 5.78242 81.9668 5.60942 81.0735 5.60942C80.6611 5.60942 80.2351 5.66709 79.7815 5.78242C79.3417 5.89775 78.9569 6.07076 78.6545 6.28701C78.3521 6.50326 78.1872 6.74835 78.1872 7.03668V18.3394H74.9573V7.45477C74.9573 6.8781 74.71 6.43118 74.2014 6.09959C73.6929 5.78242 73.0469 5.60942 72.2498 5.60942C71.7687 5.60942 71.3289 5.65267 70.9166 5.73917C70.5043 5.82567 70.1607 5.941 69.8858 6.08517C69.6109 6.22934 69.446 6.41676 69.4047 6.66184V18.325H67.4668V18.2962Z" fill="#3257A4"/>
<path d="M97.0032 18.5125C95.6013 18.5125 94.4331 18.4115 93.4848 18.2241C92.5364 18.0367 91.7805 17.6763 91.217 17.1429C90.6535 16.6094 90.2549 15.8886 90.035 14.9515C89.8014 14.0144 89.6914 12.8034 89.6914 11.3185C89.6914 9.54522 89.9113 8.10354 90.3374 6.99345C90.7772 5.88335 91.5468 5.07601 92.6601 4.55701C93.7734 4.03801 95.3265 3.7785 97.3194 3.7785C98.8724 3.7785 100.123 3.98034 101.044 4.36959C101.965 4.75885 102.638 5.37877 103.051 6.22936C103.463 7.06553 103.669 8.13237 103.669 9.42988V11.7366H94.0208C94.0208 11.3473 94.1032 11.0446 94.2544 10.7995C94.4194 10.5544 94.708 10.4391 95.1478 10.4391H100.783L100.755 9.50197C100.728 8.1612 100.467 7.16645 99.9445 6.54653C99.4359 5.9266 98.5013 5.60943 97.1819 5.60943C96.0824 5.60943 95.2303 5.78244 94.6118 6.14286C93.9933 6.50327 93.5535 7.07995 93.3061 7.88729C93.0587 8.69462 92.935 9.80472 92.935 11.2176C92.935 12.6881 93.0724 13.7982 93.3611 14.5478C93.6497 15.2975 94.1307 15.8165 94.8042 16.076C95.4777 16.3355 96.426 16.4653 97.6355 16.4653C98.0753 16.4653 98.5838 16.4509 99.1611 16.4364C99.7383 16.4076 100.343 16.3788 100.948 16.3355C101.553 16.2923 102.102 16.2202 102.583 16.1625C103.064 16.0904 103.38 16.0183 103.545 15.9463V16.4509C103.545 16.7104 103.49 16.9843 103.38 17.2438C103.271 17.5033 103.023 17.7195 102.666 17.8925C102.185 18.1376 101.484 18.2962 100.549 18.3827C99.6009 18.4692 98.4189 18.5125 97.0032 18.5125Z" fill="#3257A4"/>
<path d="M105.827 11.0589C105.827 9.11266 106.075 7.61331 106.583 6.5753C107.092 5.5373 107.82 4.81646 108.782 4.41279C109.744 4.02354 110.899 3.8217 112.246 3.8217C112.658 3.8217 113.139 3.83612 113.675 3.87937C114.211 3.9082 114.747 3.96587 115.269 4.03795C115.792 4.11004 116.259 4.18212 116.671 4.26862C117.084 4.35512 117.372 4.44162 117.523 4.54254L116.671 4.97504V0.102173H119.832L119.805 11.0589C119.805 12.688 119.695 13.9999 119.461 14.9659C119.228 15.9318 118.857 16.667 118.334 17.1428C117.812 17.6186 117.07 17.9501 116.135 18.1087C115.201 18.2817 114.032 18.3538 112.63 18.3538C111.325 18.3538 110.239 18.2673 109.346 18.0799C108.466 17.9069 107.765 17.5609 107.257 17.0563C106.748 16.5517 106.377 15.8165 106.157 14.865C105.937 13.9134 105.827 12.6448 105.827 11.0589ZM112.562 16.5229C113.455 16.5229 114.17 16.4508 114.72 16.321C115.269 16.1913 115.682 15.9462 115.97 15.5858C116.259 15.2254 116.451 14.7208 116.534 14.0576C116.63 13.3944 116.671 12.5439 116.671 11.477L116.644 5.9698C116.41 5.94097 116.108 5.92655 115.723 5.89772C115.338 5.86888 114.926 5.85447 114.486 5.84005C114.046 5.82563 113.648 5.82563 113.29 5.82563C112.259 5.82563 111.435 5.9698 110.816 6.24372C110.198 6.51764 109.758 7.03664 109.483 7.81515C109.208 8.57924 109.071 9.68933 109.071 11.131C109.071 12.6736 109.181 13.8269 109.401 14.591C109.621 15.3551 109.978 15.8741 110.5 16.1336C110.995 16.3931 111.682 16.5229 112.562 16.5229Z" fill="#3257A4"/>
</svg>
