<svg width="22" height="22" viewBox="0 0 22 22" fill="none" xmlns="http://www.w3.org/2000/svg">
<path d="M16.7258 14.5522C16.0069 13.8427 15.1095 13.8427 14.3953 14.5522C13.8504 15.0924 13.3056 15.6325 12.7699 16.1819C12.6234 16.3329 12.4997 16.365 12.3212 16.2643C11.9686 16.072 11.5932 15.9164 11.2544 15.7058C9.67476 14.7124 8.35156 13.4353 7.17945 11.9979C6.59797 11.2838 6.08059 10.5194 5.71888 9.65877C5.64563 9.48482 5.65936 9.37038 5.8013 9.22847C6.34615 8.70205 6.87726 8.16189 7.41295 7.62173C8.15926 6.871 8.15926 5.9921 7.40838 5.23679C6.98257 4.8065 6.55676 4.38536 6.13095 3.95506C5.69141 3.51561 5.25645 3.07158 4.81233 2.63671C4.09349 1.93634 3.1961 1.93634 2.48184 2.64129C1.93241 3.18145 1.40588 3.73534 0.847291 4.26634C0.329913 4.75614 0.0689351 5.35581 0.0139923 6.05619C-0.0730004 7.19601 0.206292 8.27175 0.600049 9.32002C1.40588 11.4898 2.63293 13.417 4.12097 15.1839C6.13096 17.5735 8.53012 19.464 11.3368 20.8281C12.6005 21.4415 13.9099 21.913 15.3339 21.9908C16.3137 22.0458 17.1653 21.7986 17.8475 21.0341C18.3145 20.5123 18.8411 20.0362 19.3355 19.5372C20.0681 18.7957 20.0727 17.8985 19.3447 17.166C18.4748 16.2917 17.6003 15.422 16.7258 14.5522Z" fill="white"/>
<path d="M15.8509 10.9039L17.5404 10.6155C17.2748 9.06369 16.5422 7.65837 15.4296 6.54143C14.2529 5.36498 12.7649 4.62341 11.1258 4.39453L10.8877 6.09283C12.156 6.27135 13.3098 6.84355 14.2209 7.7545C15.0817 8.61509 15.6448 9.70456 15.8509 10.9039Z" fill="white"/>
<path d="M18.493 3.56138C16.5425 1.61132 14.0746 0.379942 11.3504 0L11.1123 1.69829C13.4657 2.02788 15.5993 3.09447 17.2842 4.77445C18.8821 6.37203 19.9306 8.39076 20.3106 10.6109L22.0001 10.3225C21.556 7.7499 20.3427 5.41531 18.493 3.56138Z" fill="white"/>
</svg>
